<svg version="1.0" xmlns="http://www.w3.org/2000/svg"
 width="1403.000000pt" height="1091.000000pt" viewBox="0 0 1403.000000 1091.000000"
 preserveAspectRatio="xMidYMid meet"><g transform="translate(0.000000,1091.000000) scale(0.100000,-0.100000)"
fill="#000000" stroke="none"><path d="M0 5455 l0 -5455 7015 0 7015 0 0 5455 0 5455 -7015 0 -7015 0 0
-5455z m5471 3088 c17 -38 39 -86 48 -108 23 -51 41 -93 76 -175 15 -36 38
-89 51 -118 13 -28 36 -80 50 -115 14 -34 30 -66 35 -71 5 -6 9 -15 9 -22 0
-7 18 -51 40 -98 22 -47 40 -88 40 -90 0 -3 11 -29 24 -58 13 -29 34 -75 46
-103 12 -27 33 -72 45 -100 13 -27 35 -79 50 -115 26 -63 192 -445 219 -505
27 -60 45 -101 72 -170 15 -38 36 -82 46 -97 10 -14 18 -31 18 -37 0 -6 8 -25
18 -43 9 -18 24 -51 31 -73 8 -22 33 -80 56 -130 72 -152 85 -183 85 -197 0
-8 4 -18 8 -24 5 -5 23 -45 41 -89 18 -44 46 -107 61 -140 71 -151 100 -216
100 -222 0 -3 16 -42 36 -87 20 -44 48 -106 61 -136 13 -30 32 -71 41 -90 9
-19 17 -39 18 -45 0 -5 13 -37 28 -70 16 -33 37 -80 47 -105 47 -110 54 -113
82 -42 10 26 36 85 57 132 21 47 48 108 59 135 12 28 30 67 41 87 11 20 27 58
36 85 14 43 79 190 104 235 6 10 10 23 10 29 0 6 18 49 40 95 22 47 40 86 40
89 0 4 32 77 75 170 13 28 35 82 50 120 15 39 40 97 55 131 16 33 63 141 105
240 42 98 91 211 109 249 18 39 37 81 41 95 4 14 21 50 36 81 16 31 29 59 29
63 0 6 13 36 63 146 23 52 34 76 77 180 18 41 45 104 62 140 16 36 33 74 37
85 16 39 64 150 72 167 5 10 9 24 9 32 0 8 3 16 8 18 8 4 52 103 59 136 3 12
9 22 13 22 4 0 11 12 14 26 4 14 20 53 36 87 16 34 44 100 64 147 19 47 57
135 85 195 55 120 66 129 123 101 17 -9 40 -16 51 -16 22 0 57 -27 57 -43 0
-9 -49 -129 -90 -222 -40 -91 -59 -133 -85 -195 -15 -36 -41 -94 -57 -130 -39
-87 -51 -116 -76 -175 -12 -27 -35 -81 -51 -118 -17 -38 -31 -71 -31 -73 0 -3
-20 -48 -45 -101 -25 -52 -45 -101 -45 -107 0 -6 -6 -20 -13 -31 -8 -11 -24
-47 -37 -80 -13 -33 -36 -87 -50 -120 -15 -33 -38 -85 -51 -115 -12 -30 -31
-70 -41 -88 -10 -18 -18 -37 -18 -42 0 -10 -14 -43 -71 -166 -16 -34 -29 -66
-29 -70 0 -5 -18 -46 -40 -92 -22 -46 -40 -89 -40 -95 0 -7 -5 -18 -11 -24 -6
-6 -12 -17 -13 -24 -4 -18 -16 -48 -54 -129 -16 -36 -51 -114 -77 -175 -26
-60 -57 -130 -69 -155 -11 -25 -21 -50 -22 -57 -1 -7 -14 -38 -29 -70 -28 -60
-66 -143 -104 -225 -11 -26 -21 -50 -21 -52 0 -11 -107 -257 -161 -372 -22
-45 -39 -86 -39 -93 0 -6 -4 -19 -9 -29 -6 -9 -22 -44 -36 -77 -15 -33 -38
-82 -51 -109 -13 -28 -24 -58 -24 -68 0 -10 -3 -18 -7 -18 -12 0 -33 -51 -33
-80 0 -15 7 -41 16 -59 9 -17 17 -37 18 -44 2 -11 21 -54 71 -162 13 -27 40
-90 61 -140 20 -49 47 -112 60 -140 44 -98 74 -166 74 -170 0 -3 18 -42 40
-89 22 -46 40 -87 40 -90 0 -3 14 -35 30 -71 17 -36 30 -68 30 -71 0 -3 18
-42 40 -86 22 -44 39 -83 38 -86 -1 -4 13 -36 30 -71 18 -36 32 -69 32 -75 0
-6 17 -47 39 -91 46 -95 60 -128 96 -218 15 -37 31 -70 36 -73 5 -3 9 -12 9
-19 0 -8 18 -52 40 -99 22 -46 40 -87 40 -90 0 -6 13 -37 66 -154 13 -29 24
-55 24 -58 0 -5 19 -47 70 -159 31 -68 66 -146 85 -190 7 -16 19 -46 28 -65 8
-19 27 -64 42 -100 15 -36 35 -83 45 -105 10 -22 27 -60 38 -85 10 -25 33 -74
49 -110 17 -36 30 -66 29 -67 -1 -1 -48 -3 -106 -6 -88 -3 -107 -1 -117 12 -7
9 -13 21 -13 28 0 6 -18 51 -41 100 -55 120 -62 135 -104 237 -20 49 -40 96
-44 105 -34 71 -76 166 -97 221 -10 25 -23 54 -30 65 -7 11 -20 38 -27 60 -8
22 -29 72 -47 110 -18 39 -36 79 -41 90 -5 11 -38 90 -75 175 -36 85 -81 187
-100 226 -19 38 -34 76 -34 83 0 7 -7 25 -14 39 -17 30 -51 104 -51 112 -1 3
-13 30 -27 60 -14 30 -34 75 -44 100 -11 25 -29 64 -41 88 -13 24 -23 47 -23
52 0 4 -16 42 -35 83 -19 41 -35 78 -35 81 0 4 -18 43 -40 88 -22 44 -42 88
-44 97 -1 9 -13 39 -25 66 -13 28 -42 95 -66 150 -89 206 -110 248 -121 233
-6 -7 -22 -42 -36 -78 -14 -36 -43 -101 -63 -145 -53 -115 -68 -149 -110 -250
-20 -49 -55 -127 -76 -173 -21 -45 -39 -88 -39 -95 0 -7 -6 -21 -13 -32 -7
-11 -20 -36 -27 -55 -7 -19 -26 -63 -42 -98 -15 -34 -28 -65 -28 -67 0 -3 -14
-35 -31 -72 -54 -120 -66 -146 -118 -266 -28 -64 -51 -123 -51 -130 0 -7 -4
-17 -9 -22 -8 -10 -111 -239 -111 -249 0 -3 -15 -38 -34 -78 -29 -63 -62 -136
-152 -343 -9 -22 -18 -47 -20 -57 -2 -9 -20 -48 -39 -87 -20 -39 -43 -90 -51
-114 -8 -23 -21 -51 -28 -62 -7 -11 -31 -67 -55 -125 -23 -58 -50 -121 -59
-140 l-17 -35 -99 -3 c-55 -1 -104 2 -109 7 -6 6 -2 21 11 43 11 18 28 56 37
83 15 45 80 192 105 237 6 10 10 23 10 29 0 6 18 49 40 95 22 47 40 86 40 89
0 4 32 77 75 170 13 28 35 82 50 120 15 39 40 97 55 131 16 33 63 141 105 240
42 98 91 211 109 249 18 39 37 81 41 95 4 14 21 50 36 81 16 31 29 59 29 63 0
6 13 36 63 146 23 52 34 76 77 180 18 41 45 104 62 140 16 36 33 74 37 85 16
39 64 150 72 167 5 10 9 24 9 32 0 8 3 16 8 18 8 4 52 103 59 136 3 12 9 22
13 22 4 0 11 12 14 26 4 14 20 53 36 87 64 138 113 263 112 288 0 14 -19 64
-41 110 -23 46 -41 87 -41 91 0 4 -11 31 -24 60 -13 29 -34 76 -46 103 -12 28
-32 73 -45 100 -12 28 -57 131 -100 230 -43 99 -90 207 -106 240 -15 33 -40
94 -57 135 -16 41 -42 102 -57 135 -29 64 -75 164 -105 230 -10 22 -25 58 -33
80 -8 22 -34 81 -57 130 -70 150 -80 174 -80 183 0 5 -13 35 -28 68 -16 32
-34 75 -41 94 -7 19 -26 62 -41 95 -67 143 -100 216 -100 222 0 3 -16 42 -36
87 -20 44 -48 106 -61 136 -13 30 -32 71 -41 90 -9 19 -17 40 -17 45 0 6 -3
15 -7 20 -3 6 -40 87 -81 180 -41 94 -86 196 -101 227 -14 31 -26 59 -26 62 0
2 -14 35 -31 72 -17 37 -32 72 -33 78 -2 6 -17 43 -35 81 -51 109 -57 124 -97
220 -20 50 -46 109 -58 133 l-21 43 24 20 c13 10 31 19 40 20 9 0 34 9 56 19
22 10 46 19 53 19 7 1 27 -29 43 -66z m3596 16 c65 -28 163 -70 218 -94 93
-40 993 -431 1170 -508 44 -19 283 -123 530 -230 248 -107 675 -293 950 -412
275 -120 617 -268 761 -330 144 -62 270 -117 280 -123 10 -6 91 -41 179 -78
88 -37 183 -78 210 -90 28 -12 133 -59 235 -103 102 -44 186 -86 188 -94 1 -7
-25 -76 -58 -153 -103 -232 -134 -305 -565 -1298 -229 -528 -424 -978 -434
-1000 -10 -23 -94 -215 -186 -428 -188 -436 -168 -408 -266 -364 -30 13 -342
149 -694 301 -352 153 -658 286 -680 296 -22 10 -229 100 -460 200 -231 100
-492 213 -580 251 -206 90 -560 244 -745 323 -80 35 -253 110 -385 167 -132
57 -462 201 -732 318 -282 122 -493 219 -493 226 0 7 97 237 216 511 119 274
267 615 329 758 200 461 316 729 339 780 12 28 137 314 277 637 140 323 260
588 266 588 7 0 65 -23 130 -51z m-3765 -490 c121 -266 286 -632 368 -814 82
-181 313 -694 514 -1138 201 -445 363 -814 360 -821 -3 -7 -76 -45 -162 -84
-86 -39 -557 -251 -1047 -472 -489 -221 -963 -435 -1053 -476 -89 -41 -164
-74 -167 -74 -2 0 -50 -22 -107 -48 -263 -123 -2289 -1034 -2292 -1031 -1 2
-195 432 -431 954 -481 1067 -652 1446 -862 1910 -175 385 -178 394 -167 405
5 4 265 124 579 265 314 141 595 268 625 282 30 14 314 142 630 285 714 322
968 437 2085 943 490 221 894 402 899 401 5 -1 108 -220 228 -487z"/>
<path d="M8947 8553 c-3 -5 -67 -150 -142 -323 -75 -173 -143 -328 -150 -345
-8 -16 -110 -253 -228 -525 -118 -272 -274 -632 -347 -800 -248 -571 -298
-685 -409 -942 -61 -141 -111 -261 -111 -265 0 -4 58 -32 128 -62 119 -51 392
-170 647 -281 110 -48 1153 -501 1360 -590 61 -26 522 -227 1025 -445 503
-219 1032 -448 1176 -510 144 -62 270 -118 280 -123 59 -31 168 -72 174 -65 4
4 26 53 50 108 23 55 51 118 61 140 10 22 114 263 232 535 118 272 268 617
332 765 140 322 230 529 315 725 34 80 139 320 231 534 93 213 169 392 169
396 0 4 -39 24 -87 45 -49 21 -209 90 -358 155 -148 65 -558 243 -910 395
-352 153 -658 286 -680 296 -22 10 -229 100 -460 200 -231 100 -492 213 -580
251 -88 39 -259 113 -380 165 -121 53 -274 119 -340 148 -66 28 -230 100 -365
158 -135 58 -328 142 -430 186 -194 85 -196 86 -203 74z m1888 -1561 c175 -36
325 -106 483 -226 77 -59 125 -113 210 -240 120 -178 171 -332 188 -569 17
-225 -73 -509 -222 -704 -45 -59 -186 -196 -239 -233 -65 -45 -220 -123 -275
-139 -25 -7 -56 -17 -70 -21 -83 -26 -158 -35 -290 -35 -205 1 -314 27 -512
126 -141 70 -299 211 -385 342 -65 101 -103 166 -103 178 0 5 -8 28 -19 52
-28 63 -59 190 -71 293 -11 101 0 256 27 354 8 30 17 66 20 80 9 41 98 224
141 286 44 65 185 214 247 260 80 60 231 138 315 161 68 20 116 32 160 42 55
11 326 7 395 -7z"/>
<path d="M2678 7433 c-434 -196 -788 -362 -788 -369 0 -11 19 -56 79 -187 17
-37 31 -70 31 -73 0 -3 22 -51 49 -107 26 -56 56 -120 66 -142 20 -47 51 -115
94 -208 17 -37 31 -70 31 -72 0 -3 20 -46 44 -97 24 -51 54 -115 66 -143 12
-27 33 -74 46 -103 13 -29 24 -55 24 -57 0 -2 22 -51 48 -107 66 -139 92 -197
92 -202 0 -3 18 -42 39 -88 22 -46 81 -175 131 -288 102 -227 128 -283 166
-367 35 -77 71 -156 101 -223 13 -30 37 -82 52 -115 15 -33 37 -80 48 -105 11
-25 41 -90 66 -145 25 -55 57 -127 72 -160 14 -33 34 -77 45 -98 11 -22 20
-44 20 -51 0 -7 6 -20 13 -30 15 -21 -68 -56 886 374 636 287 721 327 718 345
-3 15 -1112 2477 -1261 2800 -13 28 -56 123 -96 213 -41 89 -78 162 -84 161
-6 0 -365 -160 -798 -356z"/>
</g>
</svg>
